#!OML:ASF H:\Swim 2\Project 1\Capture day 1\Session 1\male.ASF
:FULLY-SPECIFIED
:DEGREES
1669
root -0.073053 14.2874 7.08577 87.4696 3.20453 1.84463
lowerback -5.30217 2.88105 -10.2097
upperback -8.73801 4.31325 2.3459
thorax -7.31914 3.05341 8.154
lowerneck -16.1292 -5.09577 2.18928
upperneck -0.192973 -7.14516 -2.49253
head 2.56433 -3.69279 -1.70664
rclavicle -1.27222e-014 -7.95139e-015
rhumerus -33.8588 28.9929 -47.0559
rradius 83.891
rwrist -56.0869
rhand -5.55308 6.2717
rfingers 7.12502
rthumb 20.2619 -22.6915
lclavicle -1.27222e-014 -7.95139e-015
lhumerus -399.527 -67.1799 -282.678
lradius 64.4682
lwrist 50.3085
lhand -46.7868 -50.2672
lfingers 7.12502
lthumb -19.5023 -21.2253
rfemur -47.7761 -11.1403 21.3743
rtibia 98.2683
rfoot 25.3644 4.47396
rtoes 18.6375
lfemur -46.2921 7.75025 -25.9593
ltibia 112.895
lfoot -0.276513 -5.87
ltoes 2.19611
1670
root -0.0698442 14.3031 7.11836 88.5022 3.1889 1.96198
lowerback -5.94888 2.43471 -9.62314
upperback -8.87904 3.73156 2.07172
thorax -6.88649 2.68702 7.57474
lowerneck -16.658 -4.81209 1.73056
upperneck -0.133882 -6.71062 -1.85432
head 2.73112 -3.44968 -1.41181
rclavicle -1.43125e-014 0
rhumerus -36.1905 28.7564 -48.4173
rradius 82.8746
rwrist -57.4236
rhand -4.21572 6.07636
rfingers 7.12502
rthumb 21.5468 -22.7451
lclavicle -1.43125e-014 0
lhumerus -405.498 -65.8716 -279.031
lradius 60.5205
lwrist 46.2273
lhand -47.6372 -49.3026
lfingers 7.12502
lthumb -20.3197 -20.3455
rfemur -48.2204 -11.6947 21.326
rtibia 99.7567
rfoot 26.9154 4.94822
rtoes 18.9107
lfemur -46.4764 7.55568 -25.6845
ltibia 114.321
lfoot 0.0986361 -6.03042
ltoes 3.52331
1671
root -0.0661939 14.3182 7.1453 89.5903 3.16769 2.02457
lowerback -6.67671 2.00369 -9.00555
upperback -9.0118 3.17244 1.79712
thorax -6.42237 2.33013 6.97022
lowerneck -17.2283 -4.52518 1.32126
upperneck -0.00503561 -6.27994 -1.20858
head 2.92575 -3.20572 -1.12227
rclavicle 2.54444e-014 2.8625e-014
rhumerus -38.2583 28.458 -49.5171
rradius 81.5355
rwrist -58.6733
rhand -2.52865 5.92634
rfingers 7.12502
rthumb 23.1663 -22.7006
lclavicle 2.54444e-014 2.8625e-014
lhumerus -410.216 -64.1823 -276.588
lradius 56.2941
lwrist 41.8635
lhand -48.477 -47.5239
lfingers 7.12502
lthumb -21.1267 -18.6549
rfemur -48.6973 -12.1244 21.2838
rtibia 101.074
rfoot 28.4733 5.45624
rtoes 18.9213
lfemur -46.7144 7.31973 -25.4247
ltibia 115.553
lfoot 0.479708 -6.09021
ltoes 4.70532
1672
root -0.0625425 14.3321 7.16991 90.6854 3.14429 2.0072
lowerback -7.45211 1.61009 -8.38121
upperback -9.1258 2.66252 1.52986
thorax -5.94242 1.99902 6.36108
lowerneck -17.8203 -4.23511 0.980276
upperneck 0.189157 -5.85708 -0.586302
head 3.14246 -2.96398 -0.849569
rclavicle 3.49861e-014 4.77083e-015
rhumerus -40.071 28.117 -50.3526
rradius 79.8811
rwrist -59.89
rhand -0.609363 5.77198
rfingers 7.12502
rthumb 25.0066 -22.6113
lclavicle 3.49861e-014 4.77083e-015
lhumerus -413.658 -62.1893 -275.399
lradius 51.8921
lwrist 37.7404
lhand -49.0108 -45.1588
lfingers 7.12502
lthumb -21.6394 -16.348
rfemur -49.1333 -12.4141 21.2445
rtibia 102.183
rfoot 30.0651 6.01285
rtoes 18.7764
lfemur -46.9091 7.08563 -25.1643
ltibia 116.521
lfoot 0.83606 -6.01632
ltoes 5.78331
1673
root -0.0591289 14.3445 7.19384 91.7305 3.12253 1.90682
lowerback -8.21986 1.26199 -7.76294
upperback -9.21254 2.20775 1.276
thorax -5.46872 1.69863 5.76063
lowerneck -18.3815 -3.94739 0.692895
upperneck 0.424944 -5.44832 0.0211778
head 3.36454 -2.72741 -0.585873
rclavicle -3.49861e-014 -2.98177e-014
rhumerus -41.6145 27.7437 -50.921
rradius 77.8708
rwrist -60.8958
rhand 1.60531 5.5895
rfingers 7.12502
rthumb 27.1271 -22.4811
lclavicle -3.49861e-014 -2.98177e-014
lhumerus -415.847 -59.914 -275.467
lradius 47.4053
lwrist 34.2484
lhand -48.9938 -42.3564
lfingers 7.12502
lthumb -21.6231 -13.5437
rfemur -49.4447 -12.5494 21.1996
rtibia 103.045
rfoot 31.6882 6.60595
rtoes 18.5311
lfemur -46.9757 6.85263 -24.9048
ltibia 117.169
lfoot 1.20819 -5.73733
ltoes 6.98181
1674
root -0.0559223 14.3553 7.21837 92.6926 3.10362 1.73979
lowerback -8.94302 0.958561 -7.16598
upperback -9.26899 1.80492 1.03984
thorax -5.01595 1.429 5.18298
lowerneck -18.9114 -3.66795 0.451639
upperneck 0.718683 -5.06152 0.611612
head 3.59854 -2.50001 -0.33159
rclavicle 3.18055e-015 -2.10712e-014
rhumerus -42.8709 27.3364 -51.1851
rradius 75.5257
rwrist -61.5638
rhand 4.18875 5.14195
rfingers 7.12502
rthumb 29.5959 -22.5177
lclavicle 3.18055e-015 -2.10712e-014
lhumerus -417.022 -57.4502 -276.603
lradius 42.9374
lwrist 31.5353
lhand -48.4692 -39.4963
lfingers 7.12502
lthumb -21.1192 -10.6265
rfemur -49.5845 -12.5553 21.1398
rtibia 103.64
rfoot 33.3159 7.25187
rtoes 18.1445
lfemur -46.8662 6.58635 -24.6594
ltibia 117.447
lfoot 1.54291 -5.24959
ltoes 8.22208
1675
root -0.0531394 14.3644 7.24463 93.5584 3.11361 1.51166
lowerback -9.60804 0.697181 -6.5751
upperback -9.29202 1.44971 0.83262
thorax -4.58352 1.18729 4.63316
lowerneck -19.5987 -3.38978 0.260555
upperneck 1.5434 -4.69126 1.1585
head 3.55274 -2.27725 -0.078164
rclavicle 7.15625e-015 -2.94201e-014
rhumerus -43.8252 26.8887 -51.1614
rradius 72.8519
rwrist -61.8249
rhand 6.97002 4.46945
rfingers 7.12502
rthumb 32.2472 -22.6866
lclavicle 7.15625e-015 -2.94201e-014
lhumerus -417.32 -54.8023 -278.718
lradius 38.554
lwrist 29.5035
lhand -47.3784 -36.4459
lfingers 7.12502
lthumb -20.071 -7.46262
rfemur -49.531 -12.4309 21.0951
rtibia 103.948
rfoot 34.9278 7.90631
rtoes 17.632
lfemur -46.5528 6.28421 -24.3985
ltibia 117.319
lfoot 1.85561 -4.52098
ltoes 9.63461
1676
root -0.0508017 14.372 7.27124 94.3511 3.1525 1.24702
lowerback -10.2229 0.467106 -5.99591
upperback -9.29524 1.12881 0.657469
thorax -4.1771 0.967756 4.11867
lowerneck -20.0199 -3.12662 0.035984
upperneck 1.969 -4.33756 1.75798
head 3.7664 -2.059 0.162332
rclavicle 2.38542e-015 2.08724e-014
rhumerus -44.4828 26.4024 -50.8542
rradius 69.8757
rwrist -61.6317
rhand 9.81736 3.65146
rfingers 7.12502
rthumb 34.9531 -22.9155
lclavicle 2.38542e-015 2.08724e-014
lhumerus -416.824 -51.9265 -281.787
lradius 34.3022
lwrist 27.9108
lhand -45.4519 -32.9774
lfingers 7.12502
lthumb -18.2185 -3.81059
rfemur -49.3236 -12.202 21.0685
rtibia 103.982
rfoot 36.5122 8.55738
rtoes 16.9578
lfemur -46.0921 5.91827 -24.1385
ltibia 116.788
lfoot 2.12805 -3.58285
ltoes 11.1345
1677
root -0.0488795 14.3788 7.29737 95.079 3.22398 0.968636
lowerback -10.7885 0.262738 -5.42121
upperback -9.28033 0.834589 0.51078
thorax -3.79408 0.765721 3.63236
lowerneck -20.4121 -2.86895 -0.208195
upperneck 2.4762 -3.99125 2.35413
head 3.99962 -1.84198 0.407604
rclavicle -1.66979e-014 2.5842e-014
rhumerus -44.8658 25.8755 -50.2726
rradius 66.6522
rwrist -60.9982
rhand 12.5507 2.84222
rfingers 7.12502
rthumb 37.5413 -23.0803
lclavicle -1.66979e-014 2.5842e-014
lhumerus -415.597 -48.7616 -285.831
lradius 30.2223
lwrist 26.3467
lhand -42.5893 -29.1339
lfingers 7.12502
lthumb -15.4628 0.26769
rfemur -48.9816 -11.8894 21.0668
rtibia 103.75
rfoot 38.0405 9.16706
rtoes 16.1812
lfemur -45.5181 5.46087 -23.8851
ltibia 115.862
lfoot 2.34087 -2.48879
ltoes 12.6217
